<?xml version="1.0" encoding="UTF-8" standalone="no"?>
<!-- Generator: Adobe Illustrator 17.0.0, SVG Export Plug-In . SVG Version: 6.00 Build 0)  -->

<svg
   xmlns:dc="http://purl.org/dc/elements/1.1/"
   xmlns:cc="http://creativecommons.org/ns#"
   xmlns:rdf="http://www.w3.org/1999/02/22-rdf-syntax-ns#"
   xmlns:svg="http://www.w3.org/2000/svg"
   xmlns="http://www.w3.org/2000/svg"
   xmlns:sodipodi="http://sodipodi.sourceforge.net/DTD/sodipodi-0.dtd"
   xmlns:inkscape="http://www.inkscape.org/namespaces/inkscape"
   version="1.1"
   id="Layer_1"
   x="0px"
   y="0px"
   width="100px"
   height="100px"
   viewBox="0 0 100 100"
   enable-background="new 0 0 100 100"
   xml:space="preserve"
   inkscape:version="0.91 r13725"
   sodipodi:docname="fi-page-copy-white.svg"><metadata
     id="metadata15"><rdf:RDF><cc:Work
         rdf:about=""><dc:format>image/svg+xml</dc:format><dc:type
           rdf:resource="http://purl.org/dc/dcmitype/StillImage" /></cc:Work></rdf:RDF></metadata><defs
     id="defs13" /><sodipodi:namedview
     pagecolor="#ffffff"
     bordercolor="#666666"
     borderopacity="1"
     objecttolerance="10"
     gridtolerance="10"
     guidetolerance="10"
     inkscape:pageopacity="0"
     inkscape:pageshadow="2"
     inkscape:window-width="1920"
     inkscape:window-height="1017"
     id="namedview11"
     showgrid="false"
     inkscape:zoom="6.675088"
     inkscape:cx="73.836221"
     inkscape:cy="48.083957"
     inkscape:window-x="-8"
     inkscape:window-y="-8"
     inkscape:window-maximized="1"
     inkscape:current-layer="Layer_1" /><g
     id="g3"
     style="fill:#ffffff;fill-opacity:1;stroke:none;stroke-opacity:1"><g
       id="g5"
       style="fill:#ffffff;fill-opacity:1;stroke:none;stroke-opacity:1"><path
         d="M75.272,7.482h-0.005v-4.02c0-0.956-0.774-1.73-1.73-1.73h-2.45v0H42.397v0h-1.73l-25.95,25.95v2.447v1.013v52.912v2.447    c0,0.956,0.774,1.73,1.73,1.73h1.582h53.925h1.582c0.956,0,1.73-0.774,1.73-1.73v-2.448h0.005L75.272,7.482z M24.674,78.276    V31.142h17.723c0.956,0,1.73-0.774,1.73-1.73V11.689h21.188l0,66.587H24.674z"
         id="path7"
         style="fill:#ffffff;fill-opacity:1;stroke:none;stroke-opacity:1" /></g><path
       d="M83.77,24.857h-3.475v66.911c0,0.835-0.677,1.513-1.513,1.513H29.306v3.475c0,0.836,0.677,1.513,1.513,1.513l0.001,0v0   h52.95c0.836,0,1.513-0.677,1.513-1.513V26.37C85.283,25.534,84.606,24.857,83.77,24.857z"
       id="path9"
       style="fill:#ffffff;fill-opacity:1;stroke:none;stroke-opacity:1" /></g><path
     style="fill:#000000;fill-opacity:1;stroke:#000000;stroke-width:0.29962152;stroke-linecap:round;stroke-linejoin:round;stroke-miterlimit:4;stroke-dasharray:none;stroke-dashoffset:0"
     d="m 24.818141,54.702523 0,-23.520289 8.996085,0 c 7.68823,0 9.05902,-0.03255 9.428984,-0.223861 0.944523,-0.488431 0.900519,0.0037 0.900519,-10.07151 l 0,-9.180028 10.561658,0 10.561659,0 0,33.257989 0,33.257988 -20.224453,0 -20.224452,0 0,-23.520289 z"
     id="path4143"
     inkscape:connector-curvature="0" /><path
     style="fill:none;fill-opacity:1;stroke:none;stroke-width:0.29962152;stroke-linecap:round;stroke-linejoin:round;stroke-miterlimit:4;stroke-dasharray:none;stroke-dashoffset:0;stroke-opacity:1"
     d="m 24.218898,54.702523 0,-23.969721 9.299791,0 9.299791,0 0.437908,-0.437909 0.437908,-0.437908 0,-9.299791 0,-9.299791 11.011091,0 11.011091,0 0,33.707421 0,33.70742 -20.74879,0 -20.74879,0 0,-23.969721 z"
     id="path4145"
     inkscape:connector-curvature="0" /></svg>