<?xml version="1.0" encoding="UTF-8" standalone="no"?>
<!-- Generator: Adobe Illustrator 17.0.0, SVG Export Plug-In . SVG Version: 6.00 Build 0)  -->

<svg
   xmlns:dc="http://purl.org/dc/elements/1.1/"
   xmlns:cc="http://creativecommons.org/ns#"
   xmlns:rdf="http://www.w3.org/1999/02/22-rdf-syntax-ns#"
   xmlns:svg="http://www.w3.org/2000/svg"
   xmlns="http://www.w3.org/2000/svg"
   xmlns:sodipodi="http://sodipodi.sourceforge.net/DTD/sodipodi-0.dtd"
   xmlns:inkscape="http://www.inkscape.org/namespaces/inkscape"
   version="1.1"
   id="Layer_1"
   x="0px"
   y="0px"
   width="100px"
   height="100px"
   viewBox="0 0 100 100"
   enable-background="new 0 0 100 100"
   xml:space="preserve"
   inkscape:version="0.91 r13725"
   sodipodi:docname="fi-page-white.svg"><metadata
     id="metadata11"><rdf:RDF><cc:Work
         rdf:about=""><dc:format>image/svg+xml</dc:format><dc:type
           rdf:resource="http://purl.org/dc/dcmitype/StillImage" /><dc:title></dc:title></cc:Work></rdf:RDF></metadata><defs
     id="defs9" /><sodipodi:namedview
     pagecolor="#ffffff"
     bordercolor="#666666"
     borderopacity="1"
     objecttolerance="10"
     gridtolerance="10"
     guidetolerance="10"
     inkscape:pageopacity="0"
     inkscape:pageshadow="2"
     inkscape:window-width="1920"
     inkscape:window-height="1017"
     id="namedview7"
     showgrid="false"
     inkscape:zoom="6.675088"
     inkscape:cx="36.604032"
     inkscape:cy="40.638523"
     inkscape:window-x="-8"
     inkscape:window-y="-8"
     inkscape:window-maximized="1"
     inkscape:current-layer="Layer_1" /><g
     id="g3"
     style="fill:#ffffff"><path
       d="M80.277,12.498h-0.005v-4.02c0-0.956-0.774-1.73-1.73-1.73h-2.45v0H47.402v0h-1.73l-25.95,25.95v2.447v1.013v52.912v2.447   c0,0.956,0.774,1.73,1.73,1.73h1.582H76.96h1.582c0.956,0,1.73-0.774,1.73-1.73v-2.448h0.005L80.277,12.498z M29.679,83.292V36.158   h17.723c0.956,0,1.73-0.774,1.73-1.73V16.705h21.188l0,66.587H29.679z"
       id="path5"
       style="fill:#ffffff" /></g><path
     style="fill:#000000;fill-opacity:1;stroke:#0000b5;stroke-width:0.29962152;stroke-linecap:round;stroke-linejoin:round;stroke-miterlimit:4;stroke-dasharray:none;stroke-dashoffset:0;stroke-opacity:1"
     d="m 29.682775,59.750985 0,-23.52029 9.070991,0 c 9.952011,0 9.703587,0.02182 10.177155,-0.893961 0.19579,-0.378612 0.227253,-1.695366 0.227253,-9.510447 l 0,-9.07099 10.561658,0 10.561659,0 0,33.257988 0,33.257989 -20.299358,0 -20.299358,0 0,-23.520289 z"
     id="path4139"
     inkscape:connector-curvature="0" /></svg>